<svg xmlns="http://www.w3.org/2000/svg" width="687" height="77" fill="none" viewBox="0 0 687 77">
  <path fill="#EAEAEA" d="M35.465 76.032c-.704-4.16-2.56-8.64-5.568-13.44-3.008-4.864-7.296-9.376-12.864-13.536C11.529 44.896 6.025 42.24.52 41.088v-4.032c5.44-1.28 10.656-3.648 15.648-7.104 5.056-3.52 9.28-7.744 12.672-12.672 3.456-5.056 5.664-10.048 6.624-14.976h4.032c.576 3.2 1.728 6.496 3.456 9.888 1.728 3.328 3.936 6.528 6.624 9.6a59.195 59.195 0 0 0 9.216 8.16c5.056 3.584 10.208 5.952 15.456 7.104v4.032c-3.52.704-7.168 2.144-10.944 4.32a57.733 57.733 0 0 0-10.368 7.776c-3.2 2.944-5.824 6.048-7.872 9.312-3.008 4.8-4.864 9.312-5.568 13.536h-4.032ZM140.55 47.808h-15.456V72h-12.288V1.824h27.744c14.112 0 23.232 9.216 23.232 22.944 0 13.536-9.216 23.04-23.232 23.04Zm-2.4-35.04h-13.056v24.096h12.864c8.448 0 12.96-4.512 12.96-12.192 0-7.68-4.608-11.904-12.768-11.904Zm40.097 2.304c-4.032 0-7.2-3.168-7.2-7.104s3.168-7.008 7.2-7.008a6.985 6.985 0 0 1 7.008 7.008c0 3.936-3.168 7.104-7.008 7.104ZM172.392 72V24.576h11.712V72h-11.712Zm35.524 0h-11.712V24.576h10.848l.96 6.144c2.976-4.8 8.736-7.584 15.168-7.584 11.904 0 18.048 7.392 18.048 19.68V72h-11.712V45.6c0-7.968-3.936-11.808-9.984-11.808-7.2 0-11.616 4.992-11.616 12.672V72Zm66.035 1.248c-14.112 0-24-10.272-24-24.96 0-14.88 9.696-25.152 23.616-25.152 14.208 0 23.232 9.504 23.232 24.288v3.552l-35.712.096c.864 8.352 5.28 12.576 13.056 12.576 6.432 0 10.656-2.496 12-7.008h10.848c-2.016 10.368-10.656 16.608-23.04 16.608Zm-.288-40.512c-6.912 0-11.136 3.744-12.288 10.848h23.808c0-6.528-4.512-10.848-11.52-10.848Zm29.726 15.456c0-14.688 9.696-25.056 23.712-25.056 12.96 0 21.792 7.2 23.04 18.624h-11.712c-1.344-5.376-5.28-8.16-10.848-8.16-7.488 0-12.48 5.664-12.48 14.592s4.608 14.496 12.096 14.496c5.856 0 9.984-2.88 11.232-8.064h11.808c-1.44 11.04-10.656 18.624-23.04 18.624-14.4 0-23.808-9.984-23.808-25.056Zm52.781 0c0-14.784 10.656-24.96 25.344-24.96s25.344 10.176 25.344 24.96-10.656 24.96-25.344 24.96-25.344-10.176-25.344-24.96Zm11.712 0c0 8.64 5.568 14.496 13.632 14.496s13.632-5.856 13.632-14.496-5.568-14.496-13.632-14.496-13.632 5.856-13.632 14.496ZM427.854 72h-11.712V24.576h10.848l.96 6.144c2.976-4.8 8.736-7.584 15.168-7.584 11.904 0 18.048 7.392 18.048 19.68V72h-11.712V45.6c0-7.968-3.936-11.808-9.984-11.808-7.2 0-11.616 4.992-11.616 12.672V72Zm66.035 1.248c-14.112 0-24-10.272-24-24.96 0-14.88 9.696-25.152 23.616-25.152 14.208 0 23.232 9.504 23.232 24.288v3.552l-35.712.096c.864 8.352 5.28 12.576 13.056 12.576 6.432 0 10.656-2.496 12-7.008h10.848c-2.016 10.368-10.656 16.608-23.04 16.608Zm-.288-40.512c-6.912 0-11.136 3.744-12.288 10.848h23.808c0-6.528-4.512-10.848-11.52-10.848ZM527.838 72V1.824h27.936c13.824 0 22.272 7.2 22.272 18.912 0 7.776-3.456 13.344-10.08 16.128 7.392 2.4 11.136 7.968 11.136 16.128 0 12-8.352 19.008-22.848 19.008h-28.416Zm26.88-59.328h-14.592v19.104h14.88c6.72 0 10.464-3.552 10.464-9.792 0-6.048-3.84-9.312-10.752-9.312Zm1.056 29.472h-15.648v19.008h15.648c6.912 0 10.752-3.36 10.752-9.696 0-5.952-3.936-9.312-10.752-9.312Zm54.084 31.104c-14.112 0-24-10.272-24-24.96 0-14.88 9.696-25.152 23.616-25.152 14.208 0 23.232 9.504 23.232 24.288v3.552l-35.712.096c.864 8.352 5.28 12.576 13.056 12.576 6.432 0 10.656-2.496 12-7.008h10.848c-2.016 10.368-10.656 16.608-23.04 16.608Zm-.288-40.512c-6.912 0-11.136 3.744-12.288 10.848h23.808c0-6.528-4.512-10.848-11.52-10.848Zm53.725 40.512c-14.112 0-24-10.272-24-24.96 0-14.88 9.696-25.152 23.616-25.152 14.208 0 23.232 9.504 23.232 24.288v3.552l-35.712.096c.864 8.352 5.28 12.576 13.056 12.576 6.432 0 10.656-2.496 12-7.008h10.848c-2.016 10.368-10.656 16.608-23.04 16.608Zm-.288-40.512c-6.912 0-11.136 3.744-12.288 10.848h23.808c0-6.528-4.512-10.848-11.52-10.848Z"/>
</svg>
