<svg xmlns="http://www.w3.org/2000/svg" width="915" height="101" fill="none" viewBox="0 0 915 101">
  <path fill="#EAEAEA" d="M46.745 100.376c-.939-5.547-3.414-11.52-7.424-17.92-4.01-6.485-9.728-12.501-17.152-18.048C14.83 58.861 7.49 55.32.153 53.784v-5.376c7.253-1.707 14.208-4.864 20.864-9.472 6.741-4.693 12.373-10.325 16.896-16.896 4.608-6.741 7.552-13.397 8.832-19.968h5.376c.768 4.267 2.304 8.661 4.608 13.184 2.304 4.437 5.248 8.704 8.832 12.8a78.924 78.924 0 0 0 12.288 10.88c6.741 4.779 13.61 7.936 20.608 9.472v5.376c-4.694.939-9.558 2.859-14.592 5.76A76.97 76.97 0 0 0 70.04 69.912c-4.267 3.925-7.766 8.064-10.496 12.416-4.01 6.4-6.486 12.416-7.424 18.048h-5.376ZM186.86 62.744h-20.608V95h-16.384V1.432h36.992c18.816 0 30.976 12.288 30.976 30.592 0 18.048-12.288 30.72-30.976 30.72Zm-3.2-46.72h-17.408v32.128h17.152c11.264 0 17.28-6.016 17.28-16.256s-6.144-15.872-17.024-15.872Zm53.462 3.072c-5.376 0-9.6-4.224-9.6-9.472 0-5.248 4.224-9.344 9.6-9.344a9.314 9.314 0 0 1 9.344 9.344c0 5.248-4.224 9.472-9.344 9.472ZM229.314 95V31.768h15.616V95h-15.616Zm47.366 0h-15.616V31.768h14.464l1.28 8.192c3.968-6.4 11.648-10.112 20.224-10.112 15.872 0 24.064 9.856 24.064 26.24V95H305.48V59.8c0-10.624-5.248-15.744-13.312-15.744-9.6 0-15.488 6.656-15.488 16.896V95Zm88.047 1.664c-18.816 0-32-13.696-32-33.28 0-19.84 12.928-33.536 31.488-33.536 18.944 0 30.976 12.672 30.976 32.384v4.736l-47.616.128c1.152 11.136 7.04 16.768 17.408 16.768 8.576 0 14.208-3.328 16-9.344h14.464c-2.688 13.824-14.208 22.144-30.72 22.144Zm-.384-54.016c-9.216 0-14.848 4.992-16.384 14.464h31.744c0-8.704-6.016-14.464-15.36-14.464Zm39.634 20.608c0-19.584 12.928-33.408 31.616-33.408 17.28 0 29.056 9.6 30.72 24.832h-15.616c-1.792-7.168-7.04-10.88-14.464-10.88-9.984 0-16.64 7.552-16.64 19.456s6.144 19.328 16.128 19.328c7.808 0 13.312-3.84 14.976-10.752h15.744c-1.92 14.72-14.208 24.832-30.72 24.832-19.2 0-31.744-13.312-31.744-33.408Zm70.375 0c0-19.712 14.208-33.28 33.792-33.28 19.584 0 33.792 13.568 33.792 33.28 0 19.712-14.208 33.28-33.792 33.28-19.584 0-33.792-13.568-33.792-33.28Zm15.616 0c0 11.52 7.424 19.328 18.176 19.328 10.752 0 18.176-7.808 18.176-19.328s-7.424-19.328-18.176-19.328c-10.752 0-18.176 7.808-18.176 19.328ZM569.93 95h-15.616V31.768h14.464l1.28 8.192c3.968-6.4 11.648-10.112 20.224-10.112 15.872 0 24.064 9.856 24.064 26.24V95H598.73V59.8c0-10.624-5.248-15.744-13.312-15.744-9.6 0-15.488 6.656-15.488 16.896V95Zm88.047 1.664c-18.816 0-32-13.696-32-33.28 0-19.84 12.928-33.536 31.488-33.536 18.944 0 30.976 12.672 30.976 32.384v4.736l-47.616.128c1.152 11.136 7.04 16.768 17.408 16.768 8.576 0 14.208-3.328 16-9.344h14.464c-2.688 13.824-14.208 22.144-30.72 22.144Zm-.384-54.016c-9.216 0-14.848 4.992-16.384 14.464h31.744c0-8.704-6.016-14.464-15.36-14.464ZM703.243 95V1.432h37.248c18.432 0 29.696 9.6 29.696 25.216 0 10.368-4.608 17.792-13.44 21.504 9.856 3.2 14.848 10.624 14.848 21.504 0 16-11.136 25.344-30.464 25.344h-37.888Zm35.84-79.104h-19.456v25.472h19.84c8.96 0 13.952-4.736 13.952-13.056 0-8.064-5.12-12.416-14.336-12.416Zm1.408 39.296h-20.864v25.344h20.864c9.216 0 14.336-4.48 14.336-12.928 0-7.936-5.248-12.416-14.336-12.416Zm72.111 41.472c-18.816 0-32-13.696-32-33.28 0-19.84 12.928-33.536 31.488-33.536 18.944 0 30.976 12.672 30.976 32.384v4.736l-47.616.128c1.152 11.136 7.04 16.768 17.408 16.768 8.576 0 14.208-3.328 16-9.344h14.464c-2.688 13.824-14.208 22.144-30.72 22.144Zm-.384-54.016c-9.216 0-14.848 4.992-16.384 14.464h31.744c0-8.704-6.016-14.464-15.36-14.464Zm71.634 54.016c-18.816 0-32-13.696-32-33.28 0-19.84 12.928-33.536 31.488-33.536 18.944 0 30.976 12.672 30.976 32.384v4.736l-47.616.128c1.152 11.136 7.04 16.768 17.408 16.768 8.576 0 14.208-3.328 16-9.344h14.464c-2.688 13.824-14.208 22.144-30.72 22.144Zm-.384-54.016c-9.216 0-14.848 4.992-16.384 14.464h31.744c0-8.704-6.016-14.464-15.36-14.464Z"/>
</svg>
